<?xml version="1.0" standalone="no"?>
<!DOCTYPE svg PUBLIC "-//W3C//DTD SVG 20010904//EN"
 "http://www.w3.org/TR/2001/REC-SVG-20010904/DTD/svg10.dtd">
<svg version="1.0" xmlns="http://www.w3.org/2000/svg"
 width="300.000000pt" height="300.000000pt" viewBox="0 0 300.000000 300.000000"
 preserveAspectRatio="xMidYMid meet">
<metadata>
Created by potrace 1.14, written by Peter Selinger 2001-2017
</metadata>
<g transform="translate(0.000000,300.000000) scale(0.100000,-0.100000)"
fill="#000000" stroke="none">
<path d="M1321 2354 c-307 -56 -566 -241 -730 -521 -30 -52 -32 -77 -6 -87 17
-6 30 10 90 109 67 109 224 265 332 328 74 45 202 96 278 112 17 4 82 9 146
12 554 25 979 -456 849 -962 -47 -181 -142 -322 -281 -416 -140 -95 -328 -128
-494 -89 -75 18 -224 93 -276 139 -162 142 -205 392 -103 593 58 115 200 214
322 225 59 6 139 -11 197 -41 38 -20 70 -5 55 24 -24 45 -126 71 -257 66 -80
-3 -99 -8 -152 -36 -59 -32 -143 -108 -182 -166 -113 -166 -119 -373 -15 -569
63 -120 226 -246 368 -284 111 -30 297 -24 403 13 229 79 394 256 472 505 24
77 27 102 28 231 0 125 -3 155 -23 220 -93 294 -334 513 -642 585 -98 22 -284
27 -379 9z"/>
<path d="M1365 2085 c-88 -20 -142 -41 -216 -85 -163 -97 -297 -284 -329 -460
-57 -317 77 -640 339 -815 152 -101 280 -139 471 -139 145 -1 176 3 285 35
237 71 458 257 572 482 65 131 106 285 117 448 l5 65 -30 -4 c-28 -4 -29 -7
-30 -56 0 -28 -2 -59 -4 -70 -2 -10 -6 -39 -8 -65 -33 -308 -228 -591 -502
-728 -59 -30 -160 -66 -220 -79 -61 -13 -269 -11 -335 4 -380 84 -624 396
-614 788 6 241 136 447 348 549 180 86 354 91 511 15 78 -38 128 -80 181 -152
70 -95 98 -187 96 -315 -2 -188 -165 -361 -355 -376 -20 -2 -42 -8 -49 -15
-24 -24 38 -28 137 -7 79 17 199 108 254 193 53 83 71 150 67 255 -2 51 -6
101 -9 112 -84 309 -375 489 -682 420z"/>
<path d="M2487 2066 c-8 -8 -13 -27 -12 -43 1 -25 -3 -29 -34 -33 -48 -7 -49
-33 -1 -40 33 -5 35 -7 35 -45 0 -30 4 -41 18 -43 13 -3 17 4 18 25 1 15 1 31
0 36 0 4 14 7 32 7 34 0 73 32 62 50 -4 6 -22 10 -41 10 -19 0 -33 3 -33 8 1
4 1 24 0 45 -1 40 -18 49 -44 23z"/>
<path d="M1435 1611 c-124 -56 -160 -217 -72 -318 127 -145 361 -58 359 133
-1 150 -152 247 -287 185z"/>
<path d="M475 1508 c-2 -7 -6 -29 -7 -48 -3 -33 -5 -35 -43 -35 -30 0 -41 -4
-43 -17 -3 -15 4 -18 32 -18 35 0 36 -1 36 -39 0 -34 4 -40 30 -49 33 -12 44
-4 46 38 1 14 2 31 3 38 1 7 15 12 36 12 24 0 35 5 35 15 0 8 -8 16 -17 17
-10 0 -22 2 -28 2 -23 3 -31 17 -30 48 1 18 -3 36 -9 40 -17 12 -36 9 -41 -4z"/>
<path d="M585 1038 c-2 -7 -6 -29 -7 -48 -3 -34 -5 -35 -43 -35 -30 0 -41 -4
-43 -17 -3 -14 4 -18 25 -19 15 -1 31 -1 36 0 4 0 7 -12 7 -28 0 -29 21 -57
33 -44 4 3 7 22 7 40 0 27 4 34 18 32 36 -3 52 1 52 16 0 8 -4 16 -10 16 -5 1
-16 2 -22 3 -8 0 -15 20 -18 45 -5 43 -25 66 -35 39z"/>
</g>
</svg>
